<svg width="24" height="28" viewBox="0 0 24 28" fill="none" xmlns="http://www.w3.org/2000/svg">
<path d="M23.3867 19.3477L22.4688 28H0.398438V27.3164L11.5508 14.8945L0.710938 0.96875V0.285156H21.6094V7.64844H20.2227C19.9362 6.34635 19.3828 5.1224 18.5625 3.97656C17.7552 2.81771 16.9154 2.16667 16.043 2.02344C15.6523 1.95833 15.0924 1.91276 14.3633 1.88672C13.6471 1.84766 13.0612 1.82812 12.6055 1.82812H6.57031L15.2617 13V13.3125L5.10547 24.5625H17.8594C18.4453 24.5625 18.9661 24.3867 19.4219 24.0352C19.8776 23.6836 20.2682 23.2344 20.5938 22.6875C20.8932 22.1927 21.1602 21.6458 21.3945 21.0469C21.6289 20.4349 21.8372 19.8685 22.0195 19.3477H23.3867Z" fill="#16FFE2"/>
</svg>
