<svg width="57" height="62" viewBox="0 0 57 62" fill="none" xmlns="http://www.w3.org/2000/svg">
<g filter="url(#filter0_i)">
<g filter="url(#filter1_di)">
<circle cx="28" cy="31" r="5" fill="#16FFE2"/>
</g>
<path d="M36.7997 25.945C40.7255 32.4892 43.1066 39.0346 43.8272 44.286C44.1879 46.9146 44.1223 49.1444 43.6832 50.8613C43.2463 52.5697 42.4727 53.665 41.4821 54.2592C40.4915 54.8534 39.161 55.0204 37.4481 54.6016C35.7266 54.1808 33.7284 53.1891 31.5791 51.6334C27.2851 48.5256 22.6312 43.3436 18.7054 36.7994C14.7797 30.2552 12.3986 23.7098 11.678 18.4584C11.3173 15.8297 11.3829 13.6 11.822 11.883C12.2589 10.1747 13.0325 9.07939 14.0231 8.48515C15.0137 7.89091 16.3442 7.72398 18.0571 8.14272C19.7786 8.56358 21.7768 9.55528 23.9261 11.1109C28.2201 14.2187 32.874 19.4007 36.7997 25.945Z" stroke="#16FFE2" stroke-width="3"/>
<path d="M37.4785 35.6318C33.7565 42.294 29.2647 47.6171 25.0687 50.856C22.9683 52.4772 21.0017 53.53 19.294 54.0038C17.5948 54.4752 16.2598 54.3494 15.2514 53.786C14.2429 53.2226 13.4359 52.1517 12.9465 50.4576C12.4547 48.755 12.3202 46.5284 12.5997 43.8899C13.1579 38.6187 15.336 32.003 19.058 25.3408C22.78 18.6786 27.2719 13.3555 31.4679 10.1166C33.5682 8.49544 35.5348 7.44256 37.2426 6.9688C38.9417 6.49742 40.2767 6.62322 41.2852 7.18661C42.2936 7.75001 43.1007 8.82092 43.59 10.515C44.0819 12.2176 44.2163 14.4442 43.9369 17.0827C43.3786 22.3539 41.2005 28.9696 37.4785 35.6318Z" stroke="#16FFE2" stroke-width="3"/>
<path d="M28.1892 41.6003C20.5578 41.6003 13.72 40.2751 8.84604 38.1916C6.40633 37.1487 4.52802 35.9454 3.28152 34.6856C2.0413 33.4321 1.5 32.2053 1.5 31.0501C1.5 29.895 2.0413 28.6681 3.28152 27.4147C4.52802 26.1549 6.40633 24.9516 8.84604 23.9087C13.72 21.8252 20.5578 20.5 28.1892 20.5C35.8206 20.5 42.6585 21.8252 47.5324 23.9087C49.9721 24.9516 51.8505 26.1549 53.097 27.4147C54.3372 28.6681 54.8785 29.895 54.8785 31.0501C54.8785 32.2053 54.3372 33.4321 53.097 34.6856C51.8505 35.9454 49.9721 37.1487 47.5324 38.1916C42.6585 40.2751 35.8206 41.6003 28.1892 41.6003Z" stroke="#16FFE2" stroke-width="3"/>
</g>
<defs>
<filter id="filter0_i" x="0" y="-1" width="56.3785" height="62.7444" filterUnits="userSpaceOnUse" color-interpolation-filters="sRGB">
<feFlood flood-opacity="0" result="BackgroundImageFix"/>
<feBlend mode="normal" in="SourceGraphic" in2="BackgroundImageFix" result="shape"/>
<feColorMatrix in="SourceAlpha" type="matrix" values="0 0 0 0 0 0 0 0 0 0 0 0 0 0 0 0 0 0 127 0" result="hardAlpha"/>
<feOffset dy="-1"/>
<feGaussianBlur stdDeviation="1"/>
<feComposite in2="hardAlpha" operator="arithmetic" k2="-1" k3="1"/>
<feColorMatrix type="matrix" values="0 0 0 0 0 0 0 0 0 0 0 0 0 0 0 0 0 0 0.75 0"/>
<feBlend mode="normal" in2="shape" result="effect1_innerShadow"/>
</filter>
<filter id="filter1_di" x="11" y="14" width="34" height="34" filterUnits="userSpaceOnUse" color-interpolation-filters="sRGB">
<feFlood flood-opacity="0" result="BackgroundImageFix"/>
<feColorMatrix in="SourceAlpha" type="matrix" values="0 0 0 0 0 0 0 0 0 0 0 0 0 0 0 0 0 0 127 0" result="hardAlpha"/>
<feMorphology radius="2" operator="dilate" in="SourceAlpha" result="effect1_dropShadow"/>
<feOffset/>
<feGaussianBlur stdDeviation="5"/>
<feComposite in2="hardAlpha" operator="out"/>
<feColorMatrix type="matrix" values="0 0 0 0 0.0862745 0 0 0 0 1 0 0 0 0 0.886275 0 0 0 0.5 0"/>
<feBlend mode="normal" in2="BackgroundImageFix" result="effect1_dropShadow"/>
<feBlend mode="normal" in="SourceGraphic" in2="effect1_dropShadow" result="shape"/>
<feColorMatrix in="SourceAlpha" type="matrix" values="0 0 0 0 0 0 0 0 0 0 0 0 0 0 0 0 0 0 127 0" result="hardAlpha"/>
<feMorphology radius="10" operator="erode" in="SourceAlpha" result="effect2_innerShadow"/>
<feOffset/>
<feComposite in2="hardAlpha" operator="arithmetic" k2="-1" k3="1"/>
<feColorMatrix type="matrix" values="0 0 0 0 0.0862745 0 0 0 0 1 0 0 0 0 0.886275 0 0 0 1 0"/>
<feBlend mode="normal" in2="shape" result="effect2_innerShadow"/>
</filter>
</defs>
</svg>
