<svg width="30" height="35" viewBox="0 0 30 35" fill="none" xmlns="http://www.w3.org/2000/svg">
<path d="M29.2334 24.1846L28.0859 35H0.498047V34.1455L14.4385 18.6182L0.888672 1.21094V0.356445H27.0117V9.56055H25.2783C24.9202 7.93294 24.2285 6.40299 23.2031 4.9707C22.194 3.52214 21.1442 2.70833 20.0537 2.5293C19.5654 2.44792 18.8656 2.39095 17.9541 2.3584C17.0589 2.30957 16.3265 2.28516 15.7568 2.28516H8.21289L19.0771 16.25V16.6406L6.38184 30.7031H22.3242C23.0566 30.7031 23.7077 30.4834 24.2773 30.0439C24.847 29.6045 25.3353 29.043 25.7422 28.3594C26.1165 27.7409 26.4502 27.0573 26.7432 26.3086C27.0361 25.5436 27.2965 24.8356 27.5244 24.1846H29.2334Z" fill="#16FFE2"/>
</svg>
