<svg width="150" height="150" viewBox="0 0 150 150" fill="none" xmlns="http://www.w3.org/2000/svg">
<circle cx="75" cy="75" r="74.5" fill="#16FFE2" stroke="black"/>
<path d="M75 75H150" stroke="#2245FF"/>
<circle cx="75" cy="75" r="2" fill="#FF2222"/>
<path d="M101.433 68.124H99.7627V71H98.8203V63.8906H101.174C101.975 63.8906 102.59 64.0729 103.02 64.4375C103.452 64.8021 103.669 65.3327 103.669 66.0293C103.669 66.472 103.549 66.8577 103.308 67.1865C103.07 67.5153 102.738 67.7611 102.312 67.9238L103.981 70.9414V71H102.976L101.433 68.124ZM99.7627 67.3574H101.203C101.669 67.3574 102.038 67.237 102.312 66.9961C102.588 66.7552 102.727 66.4329 102.727 66.0293C102.727 65.5898 102.595 65.2529 102.331 65.0186C102.071 64.7842 101.693 64.6654 101.198 64.6621H99.7627V67.3574ZM108.107 71C108.055 70.8958 108.013 70.7103 107.98 70.4434C107.561 70.8796 107.059 71.0977 106.477 71.0977C105.956 71.0977 105.528 70.9512 105.192 70.6582C104.86 70.362 104.694 69.9876 104.694 69.5352C104.694 68.985 104.903 68.5586 105.319 68.2559C105.739 67.9499 106.328 67.7969 107.087 67.7969H107.966V67.3818C107.966 67.0661 107.871 66.8154 107.683 66.6299C107.494 66.4411 107.215 66.3467 106.848 66.3467C106.525 66.3467 106.255 66.4281 106.037 66.5908C105.819 66.7536 105.71 66.9505 105.71 67.1816H104.802C104.802 66.918 104.895 66.6641 105.08 66.4199C105.269 66.1725 105.523 65.9772 105.842 65.834C106.164 65.6908 106.517 65.6191 106.901 65.6191C107.51 65.6191 107.987 65.7721 108.332 66.0781C108.677 66.3809 108.856 66.7992 108.869 67.333V69.7646C108.869 70.2497 108.931 70.6354 109.055 70.9219V71H108.107ZM106.608 70.3115C106.892 70.3115 107.16 70.2383 107.414 70.0918C107.668 69.9453 107.852 69.7549 107.966 69.5205V68.4365H107.258C106.151 68.4365 105.598 68.7604 105.598 69.4082C105.598 69.6914 105.692 69.9128 105.881 70.0723C106.07 70.2318 106.312 70.3115 106.608 70.3115ZM110.065 68.3145C110.065 67.5039 110.257 66.8529 110.642 66.3613C111.026 65.8665 111.529 65.6191 112.15 65.6191C112.769 65.6191 113.259 65.8307 113.62 66.2539V63.5H114.523V71H113.693L113.649 70.4336C113.288 70.8763 112.785 71.0977 112.141 71.0977C111.529 71.0977 111.029 70.847 110.642 70.3457C110.257 69.8444 110.065 69.1901 110.065 68.3828V68.3145ZM110.969 68.417C110.969 69.016 111.092 69.4847 111.34 69.8232C111.587 70.1618 111.929 70.3311 112.365 70.3311C112.938 70.3311 113.356 70.0739 113.62 69.5596V67.1328C113.35 66.6348 112.935 66.3857 112.375 66.3857C111.932 66.3857 111.587 66.5566 111.34 66.8984C111.092 67.2402 110.969 67.7464 110.969 68.417ZM116.911 71H116.008V65.7168H116.911V71ZM115.935 64.3154C115.935 64.1689 115.979 64.0452 116.066 63.9443C116.158 63.8434 116.291 63.793 116.467 63.793C116.643 63.793 116.776 63.8434 116.867 63.9443C116.958 64.0452 117.004 64.1689 117.004 64.3154C117.004 64.4619 116.958 64.584 116.867 64.6816C116.776 64.7793 116.643 64.8281 116.467 64.8281C116.291 64.8281 116.158 64.7793 116.066 64.6816C115.979 64.584 115.935 64.4619 115.935 64.3154ZM118.122 68.3096C118.122 67.792 118.223 67.3265 118.425 66.9131C118.63 66.4997 118.913 66.1807 119.274 65.9561C119.639 65.7314 120.054 65.6191 120.52 65.6191C121.239 65.6191 121.82 65.8682 122.263 66.3662C122.709 66.8643 122.932 67.5267 122.932 68.3535V68.417C122.932 68.9313 122.832 69.3936 122.634 69.8037C122.438 70.2106 122.157 70.528 121.789 70.7559C121.424 70.9837 121.005 71.0977 120.529 71.0977C119.813 71.0977 119.232 70.8486 118.786 70.3506C118.343 69.8525 118.122 69.1934 118.122 68.373V68.3096ZM119.03 68.417C119.03 69.0029 119.165 69.4733 119.436 69.8281C119.709 70.1829 120.074 70.3604 120.529 70.3604C120.988 70.3604 121.353 70.1813 121.623 69.8232C121.893 69.4619 122.028 68.9574 122.028 68.3096C122.028 67.7301 121.89 67.2614 121.613 66.9033C121.34 66.542 120.975 66.3613 120.52 66.3613C120.074 66.3613 119.714 66.5387 119.44 66.8936C119.167 67.2484 119.03 67.7562 119.03 68.417Z" fill="#2245FF"/>
<path d="M69 97.0098H60.4688V94.6016C60.4688 93.8594 60.6328 93.2031 60.9609 92.6328C61.2891 92.0625 61.7559 91.623 62.3613 91.3145C62.9668 91.002 63.6621 90.8438 64.4473 90.8398H64.9922C65.7969 90.8398 66.502 90.9961 67.1074 91.3086C67.7129 91.6172 68.1777 92.0605 68.502 92.6387C68.8262 93.2129 68.9922 93.8828 69 94.6484V97.0098ZM61.3945 95.8848H68.0801V94.7012C68.0801 93.834 67.8105 93.1602 67.2715 92.6797C66.7324 92.1953 65.9648 91.9531 64.9688 91.9531H64.4707C63.502 91.9531 62.75 92.1816 62.2148 92.6387C61.6758 93.0918 61.4023 93.7363 61.3945 94.5723V95.8848ZM69 88.127V89.2109H62.6602V88.127H69ZM60.9785 89.2988C60.8027 89.2988 60.6543 89.2461 60.5332 89.1406C60.4121 89.0312 60.3516 88.8711 60.3516 88.6602C60.3516 88.4492 60.4121 88.2891 60.5332 88.1797C60.6543 88.0703 60.8027 88.0156 60.9785 88.0156C61.1543 88.0156 61.3008 88.0703 61.418 88.1797C61.5352 88.2891 61.5938 88.4492 61.5938 88.6602C61.5938 88.8711 61.5352 89.0312 61.418 89.1406C61.3008 89.2461 61.1543 89.2988 60.9785 89.2988ZM69 82.4727C68.875 82.5352 68.6523 82.5859 68.332 82.625C68.8555 83.1289 69.1172 83.7305 69.1172 84.4297C69.1172 85.0547 68.9414 85.5684 68.5898 85.9707C68.2344 86.3691 67.7852 86.5684 67.2422 86.5684C66.582 86.5684 66.0703 86.3184 65.707 85.8184C65.3398 85.3145 65.1562 84.6074 65.1562 83.6973V82.6426H64.6582C64.2793 82.6426 63.9785 82.7559 63.7559 82.9824C63.5293 83.209 63.416 83.543 63.416 83.9844C63.416 84.3711 63.5137 84.6953 63.709 84.957C63.9043 85.2188 64.1406 85.3496 64.418 85.3496V86.4395C64.1016 86.4395 63.7969 86.3281 63.5039 86.1055C63.207 85.8789 62.9727 85.5742 62.8008 85.1914C62.6289 84.8047 62.543 84.3809 62.543 83.9199C62.543 83.1895 62.7266 82.6172 63.0938 82.2031C63.457 81.7891 63.959 81.5742 64.5996 81.5586H67.5176C68.0996 81.5586 68.5625 81.4844 68.9062 81.3359H69V82.4727ZM68.1738 84.2715C68.1738 83.9316 68.0859 83.6094 67.9102 83.3047C67.7344 83 67.5059 82.7793 67.2246 82.6426H65.9238V83.4922C65.9238 84.8203 66.3125 85.4844 67.0898 85.4844C67.4297 85.4844 67.6953 85.3711 67.8867 85.1445C68.0781 84.918 68.1738 84.627 68.1738 84.2715ZM60 83.2695V81.957L61.7227 83.5273V84.4004L60 83.2695ZM62.6602 78.8398L63.3633 78.8105C62.8164 78.3457 62.543 77.7188 62.543 76.9297C62.543 76.043 62.8828 75.4395 63.5625 75.1191C63.2578 74.9082 63.0117 74.6348 62.8242 74.2988C62.6367 73.959 62.543 73.5586 62.543 73.0977C62.543 71.707 63.2793 71 64.752 70.9766H69V72.0605H64.8164C64.3633 72.0605 64.0254 72.1641 63.8027 72.3711C63.5762 72.5781 63.4629 72.9258 63.4629 73.4141C63.4629 73.8164 63.584 74.1504 63.8262 74.416C64.0645 74.6816 64.3867 74.8359 64.793 74.8789H69V75.9688H64.8457C63.9238 75.9688 63.4629 76.4199 63.4629 77.3223C63.4629 78.0332 63.7656 78.5195 64.3711 78.7812H69V79.8652H62.6602V78.8398ZM69.1172 66.7051C69.1172 67.5645 68.8359 68.2637 68.2734 68.8027C67.707 69.3418 66.9512 69.6113 66.0059 69.6113H65.8066C65.1777 69.6113 64.6172 69.4922 64.125 69.2539C63.6289 69.0117 63.2422 68.6758 62.9648 68.2461C62.6836 67.8125 62.543 67.3438 62.543 66.8398C62.543 66.0156 62.8145 65.375 63.3574 64.918C63.9004 64.4609 64.6777 64.2324 65.6895 64.2324H66.1406V68.5273C66.7656 68.5117 67.2715 68.3301 67.6582 67.9824C68.041 67.6309 68.2324 67.1855 68.2324 66.6465C68.2324 66.2637 68.1543 65.9395 67.998 65.6738C67.8418 65.4082 67.6348 65.1758 67.377 64.9766L67.8926 64.3145C68.709 64.8457 69.1172 65.6426 69.1172 66.7051ZM63.4336 66.8398C63.4336 67.2773 63.5938 67.6445 63.9141 67.9414C64.2305 68.2383 64.6758 68.4219 65.25 68.4922V65.3164H65.168C64.6172 65.3477 64.1914 65.4961 63.8906 65.7617C63.5859 66.0273 63.4336 66.3867 63.4336 66.8398ZM61.125 61.502H62.6602V60.3184H63.498V61.502H67.4297C67.6836 61.502 67.875 61.4492 68.0039 61.3438C68.1289 61.2383 68.1914 61.0586 68.1914 60.8047C68.1914 60.6797 68.168 60.5078 68.1211 60.2891H69C69.0781 60.5742 69.1172 60.8516 69.1172 61.1211C69.1172 61.6055 68.9707 61.9707 68.6777 62.2168C68.3848 62.4629 67.9688 62.5859 67.4297 62.5859H63.498V63.7402H62.6602V62.5859H61.125V61.502ZM63.6328 55.9824C63.6055 56.1465 63.5918 56.3242 63.5918 56.5156C63.5918 57.2266 63.8945 57.709 64.5 57.9629H69V59.0469H62.6602V57.9922L63.3926 57.9746C62.8262 57.6191 62.543 57.1152 62.543 56.4629C62.543 56.252 62.5703 56.0918 62.625 55.9824H63.6328ZM65.7715 55.3848C65.1504 55.3848 64.5918 55.2637 64.0957 55.0215C63.5996 54.7754 63.2168 54.4355 62.9473 54.002C62.6777 53.5645 62.543 53.0664 62.543 52.5078C62.543 51.6445 62.8418 50.9473 63.4395 50.416C64.0371 49.8809 64.832 49.6133 65.8242 49.6133H65.9004C66.5176 49.6133 67.0723 49.7324 67.5645 49.9707C68.0527 50.2051 68.4336 50.543 68.707 50.9844C68.9805 51.4219 69.1172 51.9258 69.1172 52.4961C69.1172 53.3555 68.8184 54.0527 68.2207 54.5879C67.623 55.1191 66.832 55.3848 65.8477 55.3848H65.7715ZM65.9004 54.2949C66.6035 54.2949 67.168 54.1328 67.5938 53.8086C68.0195 53.4805 68.2324 53.043 68.2324 52.4961C68.2324 51.9453 68.0176 51.5078 67.5879 51.1836C67.1543 50.8594 66.5488 50.6973 65.7715 50.6973C65.0762 50.6973 64.5137 50.8633 64.084 51.1953C63.6504 51.5234 63.4336 51.9609 63.4336 52.5078C63.4336 53.043 63.6465 53.4746 64.0723 53.8027C64.498 54.1309 65.1074 54.2949 65.9004 54.2949Z" fill="#FF2222"/>
<path d="M74.5 0.5V150" stroke="#FF2222"/>
</svg>
