<svg width="90" height="78" viewBox="0 0 90 78" fill="none" xmlns="http://www.w3.org/2000/svg">
<path d="M45 2L88.3013 77H1.69873L45 2Z" fill="url(#paint0_linear)"/>
<path d="M9.5 77C9.5 72.8333 6.16667 72 4.5 72L1.5 77H9.5Z" fill="#FF0000" stroke="#FF0000"/>
<path d="M80 77C80 72.8333 83.3333 72 85 72L88 77H80Z" fill="#FF0000" stroke="#FF0000"/>
<path d="M45.5 71H52V77" stroke="#FF0000"/>
<path d="M55.0264 67.4375C54.932 67.5498 54.8188 67.6401 54.687 67.7085C54.5568 67.7769 54.4136 67.811 54.2573 67.811C54.0522 67.811 53.8732 67.7606 53.7202 67.6597C53.5688 67.5588 53.4517 67.4172 53.3687 67.2349C53.2856 67.0509 53.2441 66.8483 53.2441 66.627C53.2441 66.3893 53.2889 66.1753 53.3784 65.9849C53.4696 65.7944 53.5981 65.6488 53.7642 65.5479C53.9302 65.4469 54.1239 65.3965 54.3452 65.3965C54.6968 65.3965 54.9735 65.5283 55.1753 65.792C55.3787 66.054 55.4805 66.4121 55.4805 66.8662V66.998C55.4805 67.6898 55.3438 68.1951 55.0703 68.5142C54.7969 68.8315 54.3843 68.9943 53.8325 69.0024H53.7446V68.6216H53.8398C54.2126 68.6151 54.499 68.5182 54.6992 68.3311C54.8994 68.1423 55.0085 67.8444 55.0264 67.4375ZM54.3306 67.4375C54.4819 67.4375 54.6211 67.3911 54.748 67.2983C54.8766 67.2056 54.9702 67.0908 55.0288 66.9541V66.7734C55.0288 66.4772 54.9645 66.2363 54.8359 66.0508C54.7074 65.8652 54.5446 65.7725 54.3477 65.7725C54.1491 65.7725 53.9896 65.849 53.8691 66.002C53.7487 66.1533 53.6885 66.3535 53.6885 66.6025C53.6885 66.8451 53.7463 67.0452 53.8618 67.2031C53.979 67.3594 54.1353 67.4375 54.3306 67.4375ZM58.332 67.4839C58.332 68.0129 58.2417 68.4059 58.061 68.6631C57.8804 68.9202 57.598 69.0488 57.2139 69.0488C56.8346 69.0488 56.5539 68.9235 56.3716 68.6729C56.1893 68.4206 56.0949 68.0446 56.0884 67.5449V66.9419C56.0884 66.4194 56.1787 66.0312 56.3594 65.7773C56.54 65.5234 56.8232 65.3965 57.209 65.3965C57.5915 65.3965 57.873 65.5194 58.0537 65.7651C58.2344 66.0093 58.3271 66.3869 58.332 66.8979V67.4839ZM57.8804 66.8662C57.8804 66.4837 57.8267 66.2054 57.7192 66.0312C57.6118 65.8555 57.4417 65.7676 57.209 65.7676C56.9779 65.7676 56.8094 65.8547 56.7036 66.0288C56.5978 66.203 56.5433 66.4707 56.54 66.832V67.5547C56.54 67.9388 56.5954 68.2228 56.7061 68.4067C56.8184 68.589 56.9876 68.6802 57.2139 68.6802C57.4368 68.6802 57.6021 68.5939 57.7095 68.4214C57.8185 68.2489 57.8755 67.9771 57.8804 67.606V66.8662ZM58.9326 66.0312C58.9326 65.862 58.9928 65.7139 59.1133 65.5869C59.2354 65.46 59.3826 65.3965 59.5552 65.3965C59.7244 65.3965 59.8685 65.46 59.9873 65.5869C60.1077 65.7122 60.168 65.8604 60.168 66.0312C60.168 66.2038 60.1077 66.3511 59.9873 66.4731C59.8685 66.5952 59.7244 66.6562 59.5552 66.6562C59.3843 66.6562 59.2378 66.5952 59.1157 66.4731C58.9937 66.3511 58.9326 66.2038 58.9326 66.0312ZM59.5552 66.3438C59.6431 66.3438 59.7171 66.3153 59.7773 66.2583C59.8376 66.1997 59.8677 66.124 59.8677 66.0312C59.8677 65.9368 59.8376 65.8595 59.7773 65.7993C59.7171 65.7375 59.6431 65.7065 59.5552 65.7065C59.4657 65.7065 59.39 65.7391 59.3281 65.8042C59.2679 65.8677 59.2378 65.9434 59.2378 66.0312C59.2378 66.1191 59.2679 66.1932 59.3281 66.2534C59.39 66.3136 59.4657 66.3438 59.5552 66.3438Z" fill="#FF0000"/>
<path d="M77.0679 69.4429V69.8262H76.9849C76.6333 69.8327 76.3534 69.9368 76.145 70.1387C75.9367 70.3405 75.8162 70.6245 75.7837 70.9907C75.9709 70.7759 76.2264 70.6685 76.5503 70.6685C76.8595 70.6685 77.1061 70.7775 77.29 70.9956C77.4756 71.2137 77.5684 71.4953 77.5684 71.8403C77.5684 72.2065 77.4683 72.4995 77.2681 72.7192C77.0695 72.939 76.8026 73.0488 76.4673 73.0488C76.1271 73.0488 75.8512 72.9186 75.6396 72.6582C75.4281 72.3962 75.3223 72.0592 75.3223 71.6475V71.4741C75.3223 70.8198 75.4614 70.3201 75.7397 69.9751C76.0197 69.6284 76.4355 69.451 76.9873 69.4429H77.0679ZM76.4746 71.0444C76.32 71.0444 76.1776 71.0908 76.0474 71.1836C75.9172 71.2764 75.8268 71.3927 75.7764 71.5327V71.6987C75.7764 71.9917 75.8423 72.2277 75.9741 72.4067C76.106 72.5858 76.2703 72.6753 76.4673 72.6753C76.6707 72.6753 76.8302 72.6004 76.9458 72.4507C77.063 72.3009 77.1216 72.1048 77.1216 71.8623C77.1216 71.6182 77.0622 71.4212 76.9434 71.2715C76.8262 71.1201 76.6699 71.0444 76.4746 71.0444ZM80.332 71.4839C80.332 72.0129 80.2417 72.4059 80.061 72.6631C79.8804 72.9202 79.598 73.0488 79.2139 73.0488C78.8346 73.0488 78.5539 72.9235 78.3716 72.6729C78.1893 72.4206 78.0949 72.0446 78.0884 71.5449V70.9419C78.0884 70.4194 78.1787 70.0312 78.3594 69.7773C78.54 69.5234 78.8232 69.3965 79.209 69.3965C79.5915 69.3965 79.873 69.5194 80.0537 69.7651C80.2344 70.0093 80.3271 70.3869 80.332 70.8979V71.4839ZM79.8804 70.8662C79.8804 70.4837 79.8267 70.2054 79.7192 70.0312C79.6118 69.8555 79.4417 69.7676 79.209 69.7676C78.9779 69.7676 78.8094 69.8547 78.7036 70.0288C78.5978 70.203 78.5433 70.4707 78.54 70.832V71.5547C78.54 71.9388 78.5954 72.2228 78.7061 72.4067C78.8184 72.589 78.9876 72.6802 79.2139 72.6802C79.4368 72.6802 79.6021 72.5939 79.7095 72.4214C79.8185 72.2489 79.8755 71.9771 79.8804 71.606V70.8662ZM80.9326 70.0312C80.9326 69.862 80.9928 69.7139 81.1133 69.5869C81.2354 69.46 81.3826 69.3965 81.5552 69.3965C81.7244 69.3965 81.8685 69.46 81.9873 69.5869C82.1077 69.7122 82.168 69.8604 82.168 70.0312C82.168 70.2038 82.1077 70.3511 81.9873 70.4731C81.8685 70.5952 81.7244 70.6562 81.5552 70.6562C81.3843 70.6562 81.2378 70.5952 81.1157 70.4731C80.9937 70.3511 80.9326 70.2038 80.9326 70.0312ZM81.5552 70.3438C81.6431 70.3438 81.7171 70.3153 81.7773 70.2583C81.8376 70.1997 81.8677 70.124 81.8677 70.0312C81.8677 69.9368 81.8376 69.8595 81.7773 69.7993C81.7171 69.7375 81.6431 69.7065 81.5552 69.7065C81.4657 69.7065 81.39 69.7391 81.3281 69.8042C81.2679 69.8677 81.2378 69.9434 81.2378 70.0312C81.2378 70.1191 81.2679 70.1932 81.3281 70.2534C81.39 70.3136 81.4657 70.3438 81.5552 70.3438Z" fill="#FF0000"/>
<path d="M12.0679 69.4429V69.8262H11.9849C11.6333 69.8327 11.3534 69.9368 11.145 70.1387C10.9367 70.3405 10.8162 70.6245 10.7837 70.9907C10.9709 70.7759 11.2264 70.6685 11.5503 70.6685C11.8595 70.6685 12.1061 70.7775 12.29 70.9956C12.4756 71.2137 12.5684 71.4953 12.5684 71.8403C12.5684 72.2065 12.4683 72.4995 12.2681 72.7192C12.0695 72.939 11.8026 73.0488 11.4673 73.0488C11.1271 73.0488 10.8512 72.9186 10.6396 72.6582C10.4281 72.3962 10.3223 72.0592 10.3223 71.6475V71.4741C10.3223 70.8198 10.4614 70.3201 10.7397 69.9751C11.0197 69.6284 11.4355 69.451 11.9873 69.4429H12.0679ZM11.4746 71.0444C11.32 71.0444 11.1776 71.0908 11.0474 71.1836C10.9172 71.2764 10.8268 71.3927 10.7764 71.5327V71.6987C10.7764 71.9917 10.8423 72.2277 10.9741 72.4067C11.106 72.5858 11.2703 72.6753 11.4673 72.6753C11.6707 72.6753 11.8302 72.6004 11.9458 72.4507C12.063 72.3009 12.1216 72.1048 12.1216 71.8623C12.1216 71.6182 12.0622 71.4212 11.9434 71.2715C11.8262 71.1201 11.6699 71.0444 11.4746 71.0444ZM15.332 71.4839C15.332 72.0129 15.2417 72.4059 15.061 72.6631C14.8804 72.9202 14.598 73.0488 14.2139 73.0488C13.8346 73.0488 13.5539 72.9235 13.3716 72.6729C13.1893 72.4206 13.0949 72.0446 13.0884 71.5449V70.9419C13.0884 70.4194 13.1787 70.0312 13.3594 69.7773C13.54 69.5234 13.8232 69.3965 14.209 69.3965C14.5915 69.3965 14.873 69.5194 15.0537 69.7651C15.2344 70.0093 15.3271 70.3869 15.332 70.8979V71.4839ZM14.8804 70.8662C14.8804 70.4837 14.8267 70.2054 14.7192 70.0312C14.6118 69.8555 14.4417 69.7676 14.209 69.7676C13.9779 69.7676 13.8094 69.8547 13.7036 70.0288C13.5978 70.203 13.5433 70.4707 13.54 70.832V71.5547C13.54 71.9388 13.5954 72.2228 13.7061 72.4067C13.8184 72.589 13.9876 72.6802 14.2139 72.6802C14.4368 72.6802 14.6021 72.5939 14.7095 72.4214C14.8185 72.2489 14.8755 71.9771 14.8804 71.606V70.8662ZM15.9326 70.0312C15.9326 69.862 15.9928 69.7139 16.1133 69.5869C16.2354 69.46 16.3826 69.3965 16.5552 69.3965C16.7244 69.3965 16.8685 69.46 16.9873 69.5869C17.1077 69.7122 17.168 69.8604 17.168 70.0312C17.168 70.2038 17.1077 70.3511 16.9873 70.4731C16.8685 70.5952 16.7244 70.6562 16.5552 70.6562C16.3843 70.6562 16.2378 70.5952 16.1157 70.4731C15.9937 70.3511 15.9326 70.2038 15.9326 70.0312ZM16.5552 70.3438C16.6431 70.3438 16.7171 70.3153 16.7773 70.2583C16.8376 70.1997 16.8677 70.124 16.8677 70.0312C16.8677 69.9368 16.8376 69.8595 16.7773 69.7993C16.7171 69.7375 16.6431 69.7065 16.5552 69.7065C16.4657 69.7065 16.39 69.7391 16.3281 69.8042C16.2679 69.8677 16.2378 69.9434 16.2378 70.0312C16.2378 70.1191 16.2679 70.1932 16.3281 70.2534C16.39 70.3136 16.4657 70.3438 16.5552 70.3438Z" fill="#FF0000"/>
<path d="M41 9L45 2L49 9C45.4 13 42.1667 10.6667 41 9Z" fill="#FF0000" stroke="#FF0000"/>
<path d="M45 3L45.5 77" stroke="black" className="parallax"/>
<path d="M45 2L88.5 77H45H1.5L45 2Z" stroke="#9835F4" className="parallax"/>
<path d="M44.0679 12.4429V12.8262H43.9849C43.6333 12.8327 43.3534 12.9368 43.145 13.1387C42.9367 13.3405 42.8162 13.6245 42.7837 13.9907C42.9709 13.7759 43.2264 13.6685 43.5503 13.6685C43.8595 13.6685 44.1061 13.7775 44.29 13.9956C44.4756 14.2137 44.5684 14.4953 44.5684 14.8403C44.5684 15.2065 44.4683 15.4995 44.2681 15.7192C44.0695 15.939 43.8026 16.0488 43.4673 16.0488C43.1271 16.0488 42.8512 15.9186 42.6396 15.6582C42.4281 15.3962 42.3223 15.0592 42.3223 14.6475V14.4741C42.3223 13.8198 42.4614 13.3201 42.7397 12.9751C43.0197 12.6284 43.4355 12.451 43.9873 12.4429H44.0679ZM43.4746 14.0444C43.32 14.0444 43.1776 14.0908 43.0474 14.1836C42.9172 14.2764 42.8268 14.3927 42.7764 14.5327V14.6987C42.7764 14.9917 42.8423 15.2277 42.9741 15.4067C43.106 15.5858 43.2703 15.6753 43.4673 15.6753C43.6707 15.6753 43.8302 15.6004 43.9458 15.4507C44.063 15.3009 44.1216 15.1048 44.1216 14.8623C44.1216 14.6182 44.0622 14.4212 43.9434 14.2715C43.8262 14.1201 43.6699 14.0444 43.4746 14.0444ZM47.332 14.4839C47.332 15.0129 47.2417 15.4059 47.061 15.6631C46.8804 15.9202 46.598 16.0488 46.2139 16.0488C45.8346 16.0488 45.5539 15.9235 45.3716 15.6729C45.1893 15.4206 45.0949 15.0446 45.0884 14.5449V13.9419C45.0884 13.4194 45.1787 13.0312 45.3594 12.7773C45.54 12.5234 45.8232 12.3965 46.209 12.3965C46.5915 12.3965 46.873 12.5194 47.0537 12.7651C47.2344 13.0093 47.3271 13.3869 47.332 13.8979V14.4839ZM46.8804 13.8662C46.8804 13.4837 46.8267 13.2054 46.7192 13.0312C46.6118 12.8555 46.4417 12.7676 46.209 12.7676C45.9779 12.7676 45.8094 12.8547 45.7036 13.0288C45.5978 13.203 45.5433 13.4707 45.54 13.832V14.5547C45.54 14.9388 45.5954 15.2228 45.7061 15.4067C45.8184 15.589 45.9876 15.6802 46.2139 15.6802C46.4368 15.6802 46.6021 15.5939 46.7095 15.4214C46.8185 15.2489 46.8755 14.9771 46.8804 14.606V13.8662ZM47.9326 13.0312C47.9326 12.862 47.9928 12.7139 48.1133 12.5869C48.2354 12.46 48.3826 12.3965 48.5552 12.3965C48.7244 12.3965 48.8685 12.46 48.9873 12.5869C49.1077 12.7122 49.168 12.8604 49.168 13.0312C49.168 13.2038 49.1077 13.3511 48.9873 13.4731C48.8685 13.5952 48.7244 13.6562 48.5552 13.6562C48.3843 13.6562 48.2378 13.5952 48.1157 13.4731C47.9937 13.3511 47.9326 13.2038 47.9326 13.0312ZM48.5552 13.3438C48.6431 13.3438 48.7171 13.3153 48.7773 13.2583C48.8376 13.1997 48.8677 13.124 48.8677 13.0312C48.8677 12.9368 48.8376 12.8595 48.7773 12.7993C48.7171 12.7375 48.6431 12.7065 48.5552 12.7065C48.4657 12.7065 48.39 12.7391 48.3281 12.8042C48.2679 12.8677 48.2378 12.9434 48.2378 13.0312C48.2378 13.1191 48.2679 13.1932 48.3281 13.2534C48.39 13.3136 48.4657 13.3438 48.5552 13.3438Z" fill="#FF0000"/>
<path d="M49.5869 47.3564C49.9873 46.8649 50.5081 46.6191 51.1494 46.6191C52.266 46.6191 52.8291 47.249 52.8389 48.5088V52H51.9355V48.5039C51.9323 48.123 51.8444 47.8415 51.6719 47.6592C51.5026 47.4769 51.2373 47.3857 50.876 47.3857C50.583 47.3857 50.3258 47.4639 50.1045 47.6201C49.8831 47.7764 49.7106 47.9814 49.5869 48.2354V52H48.6836V44.5H49.5869V47.3564Z" fill="black"/>
<path d="M78.1465 38.417C78.1465 39.221 77.9626 39.8688 77.5947 40.3604C77.2269 40.8519 76.7288 41.0977 76.1006 41.0977C75.4593 41.0977 74.9548 40.8942 74.5869 40.4873V43.0312H73.6836V35.7168H74.5088L74.5527 36.3027C74.9206 35.847 75.4316 35.6191 76.0859 35.6191C76.7207 35.6191 77.222 35.8584 77.5898 36.3369C77.9609 36.8154 78.1465 37.4811 78.1465 38.334V38.417ZM77.2432 38.3145C77.2432 37.7188 77.1162 37.2484 76.8623 36.9033C76.6084 36.5583 76.2601 36.3857 75.8174 36.3857C75.2705 36.3857 74.8604 36.6283 74.5869 37.1133V39.6377C74.8571 40.1195 75.2705 40.3604 75.8271 40.3604C76.2601 40.3604 76.6035 40.1895 76.8574 39.8477C77.1146 39.5026 77.2432 38.9915 77.2432 38.3145Z" fill="#9835F4"/>
<defs>
<linearGradient id="paint0_linear" x1="45" y1="2" x2="45" y2="77" gradientUnits="userSpaceOnUse">
<stop stop-color="#0000E2"/>
<stop offset="1" stop-color="#16FFE2"/>
</linearGradient>
</defs>
</svg>
