<svg width="103" height="93" viewBox="0 0 103 93" fill="none" xmlns="http://www.w3.org/2000/svg">
<path d="M51.5 2.00003L101.272 88.2069L1.72842 88.2069L51.5 2.00003Z" fill="url(#paint0_linear)"/>
<path d="M10.6954 88.2069C10.6954 83.4177 6.86399 82.4598 4.94828 82.4598L1.5 88.2069H10.6954Z" fill="#FF057C" stroke="#FF057C"/>
<path d="M91.7299 88.2069C91.7299 83.4177 95.5613 82.4598 97.477 82.4598L100.925 88.2069H91.7299Z" fill="#FF057C" stroke="#FF057C"/>
<path d="M82.0427 77.7122V78.3992H81.9402C81.4754 78.406 81.1039 78.5336 80.8259 78.782C80.5479 79.0304 80.3827 79.3824 80.3303 79.8382C80.5969 79.5579 80.9376 79.4178 81.3523 79.4178C81.7921 79.4178 82.1384 79.5727 82.3914 79.8826C82.6466 80.1925 82.7742 80.5924 82.7742 81.0823C82.7742 81.5882 82.6249 81.9983 82.3264 82.3128C82.0302 82.6249 81.6406 82.781 81.1575 82.781C80.6607 82.781 80.2574 82.5976 79.9475 82.2307C79.6399 81.8639 79.4861 81.3831 79.4861 80.7884V80.5047C79.4861 79.6319 79.698 78.9484 80.1218 78.4539C80.5479 77.9594 81.1598 77.7122 81.9573 77.7122H82.0427ZM81.1507 80.0877C80.9684 80.0877 80.8009 80.1389 80.6482 80.2415C80.4978 80.344 80.3873 80.4807 80.3167 80.6516V80.9046C80.3167 81.2737 80.3941 81.5677 80.5491 81.7864C80.704 82.0029 80.9046 82.1111 81.1507 82.1111C81.3967 82.1111 81.5916 82.0188 81.7351 81.8343C81.8787 81.6497 81.9505 81.407 81.9505 81.1062C81.9505 80.8055 81.8775 80.5605 81.7317 80.3714C81.5859 80.1822 81.3922 80.0877 81.1507 80.0877ZM86.6809 80.6175C86.6809 81.333 86.5465 81.873 86.2776 82.2376C86.011 82.5999 85.6043 82.781 85.0574 82.781C84.5196 82.781 84.114 82.6044 83.8406 82.2513C83.5694 81.8958 83.4304 81.3706 83.4236 80.6756V79.8142C83.4236 79.0987 83.5569 78.5621 83.8235 78.2044C84.0924 77.8466 84.5014 77.6678 85.0506 77.6678C85.5951 77.6678 86.0007 77.8421 86.2673 78.1907C86.5362 78.5393 86.6741 79.0611 86.6809 79.7561V80.6175ZM85.8504 79.6878C85.8504 79.2207 85.7866 78.8789 85.659 78.6624C85.5313 78.4436 85.3285 78.3343 85.0506 78.3343C84.7794 78.3343 84.58 78.4379 84.4524 78.6453C84.3248 78.8504 84.2576 79.1717 84.2507 79.6092V80.7371C84.2507 81.2019 84.3157 81.5483 84.4456 81.7762C84.5755 82.004 84.7794 82.118 85.0574 82.118C85.324 82.118 85.5211 82.0131 85.6487 81.8035C85.7763 81.5916 85.8435 81.2612 85.8504 80.8123V79.6878ZM88.3797 77.6678C88.6212 77.6678 88.8297 77.7578 89.0051 77.9378C89.1806 78.1178 89.2683 78.3331 89.2683 78.5838C89.2683 78.8344 89.1817 79.0486 89.0086 79.2263C88.8354 79.4018 88.6257 79.4895 88.3797 79.4895C88.1313 79.4895 87.9182 79.4018 87.7405 79.2263C87.565 79.0486 87.4773 78.8344 87.4773 78.5838C87.4773 78.3331 87.5662 78.1178 87.7439 77.9378C87.9239 77.7578 88.1358 77.6678 88.3797 77.6678ZM88.3797 79.0076C88.5004 79.0076 88.5995 78.9677 88.677 78.888C88.7568 78.8059 88.7966 78.7045 88.7966 78.5838C88.7966 78.4653 88.7568 78.3627 88.677 78.2762C88.5995 78.1896 88.5004 78.1463 88.3797 78.1463C88.2589 78.1463 88.1575 78.1896 88.0755 78.2762C87.9934 78.3627 87.9524 78.4653 87.9524 78.5838C87.9524 78.7023 87.9934 78.8025 88.0755 78.8846C88.1598 78.9666 88.2612 79.0076 88.3797 79.0076Z" fill="#FF057C"/>
<path d="M15.3761 77.7122V78.3992H15.2735C14.8087 78.406 14.4373 78.5336 14.1593 78.782C13.8813 79.0304 13.7161 79.3824 13.6637 79.8382C13.9303 79.5579 14.2709 79.4178 14.6857 79.4178C15.1254 79.4178 15.4718 79.5727 15.7247 79.8826C15.9799 80.1925 16.1075 80.5924 16.1075 81.0823C16.1075 81.5882 15.9583 81.9983 15.6598 82.3128C15.3636 82.6249 14.9739 82.781 14.4908 82.781C13.9941 82.781 13.5908 82.5976 13.2809 82.2307C12.9733 81.8639 12.8194 81.3831 12.8194 80.7884V80.5047C12.8194 79.6319 13.0314 78.9484 13.4552 78.4539C13.8813 77.9594 14.4931 77.7122 15.2906 77.7122H15.3761ZM14.484 80.0877C14.3017 80.0877 14.1342 80.1389 13.9816 80.2415C13.8312 80.344 13.7206 80.4807 13.65 80.6516V80.9046C13.65 81.2737 13.7275 81.5677 13.8824 81.7864C14.0374 82.0029 14.2379 82.1111 14.484 82.1111C14.7301 82.1111 14.9249 82.0188 15.0685 81.8343C15.212 81.6497 15.2838 81.407 15.2838 81.1062C15.2838 80.8055 15.2109 80.5605 15.065 80.3714C14.9192 80.1822 14.7255 80.0877 14.484 80.0877ZM20.0143 80.6175C20.0143 81.333 19.8798 81.873 19.6109 82.2376C19.3443 82.5999 18.9376 82.781 18.3907 82.781C17.853 82.781 17.4474 82.6044 17.1739 82.2513C16.9028 81.8958 16.7638 81.3706 16.7569 80.6756V79.8142C16.7569 79.0987 16.8902 78.5621 17.1568 78.2044C17.4257 77.8466 17.8347 77.6678 18.3839 77.6678C18.9285 77.6678 19.3341 77.8421 19.6007 78.1907C19.8696 78.5393 20.0074 79.0611 20.0143 79.7561V80.6175ZM19.1837 79.6878C19.1837 79.2207 19.1199 78.8789 18.9923 78.6624C18.8647 78.4436 18.6619 78.3343 18.3839 78.3343C18.1127 78.3343 17.9134 78.4379 17.7858 78.6453C17.6581 78.8504 17.5909 79.1717 17.5841 79.6092V80.7371C17.5841 81.2019 17.649 81.5483 17.7789 81.7762C17.9088 82.004 18.1127 82.118 18.3907 82.118C18.6573 82.118 18.8544 82.0131 18.982 81.8035C19.1096 81.5916 19.1769 81.2612 19.1837 80.8123V79.6878ZM21.713 77.6678C21.9545 77.6678 22.163 77.7578 22.3385 77.9378C22.5139 78.1178 22.6017 78.3331 22.6017 78.5838C22.6017 78.8344 22.5151 79.0486 22.3419 79.2263C22.1687 79.4018 21.9591 79.4895 21.713 79.4895C21.4646 79.4895 21.2516 79.4018 21.0738 79.2263C20.8984 79.0486 20.8107 78.8344 20.8107 78.5838C20.8107 78.3331 20.8995 78.1178 21.0773 77.9378C21.2573 77.7578 21.4692 77.6678 21.713 77.6678ZM21.713 79.0076C21.8338 79.0076 21.9329 78.9677 22.0104 78.888C22.0901 78.8059 22.13 78.7045 22.13 78.5838C22.13 78.4653 22.0901 78.3627 22.0104 78.2762C21.9329 78.1896 21.8338 78.1463 21.713 78.1463C21.5922 78.1463 21.4908 78.1896 21.4088 78.2762C21.3268 78.3627 21.2858 78.4653 21.2858 78.5838C21.2858 78.7023 21.3268 78.8025 21.4088 78.8846C21.4931 78.9666 21.5945 79.0076 21.713 79.0076Z" fill="#FF057C"/>
<path d="M46.9023 10.046L51.5 2.00003L56.0977 10.046C51.9598 14.6437 48.2433 11.9617 46.9023 10.046Z" fill="#FF057C" stroke="#FF057C"/>
<path d="M51.5 92.8046L51.5 83.0345M81.0605 42.2807L72.1016 47.4532M21.3597 42.1357L32.3094 48.4575M1.5 88.2069L51.5 88.2069L101.5 88.2069L51.5 2.00003L26.5 45.1035L14 66.6552L1.5 88.2069Z" stroke="#9835F4"/>
<path d="M48.7094 17.9421V18.6291H48.6069C48.142 18.6359 47.7706 18.7635 47.4926 19.0119C47.2146 19.2603 47.0494 19.6123 46.997 20.0681C47.2636 19.7878 47.6043 19.6476 48.019 19.6476C48.4588 19.6476 48.8051 19.8026 49.0581 20.1125C49.3133 20.4224 49.4409 20.8223 49.4409 21.3122C49.4409 21.8181 49.2916 22.2282 48.9931 22.5427C48.6969 22.8548 48.3072 23.0109 47.8242 23.0109C47.3274 23.0109 46.9241 22.8275 46.6142 22.4606C46.3066 22.0938 46.1528 21.613 46.1528 21.0182V20.7346C46.1528 19.8618 46.3647 19.1782 46.7885 18.6838C47.2146 18.1893 47.8265 17.9421 48.624 17.9421H48.7094ZM47.8173 20.3176C47.635 20.3176 47.4676 20.3688 47.3149 20.4714C47.1645 20.5739 47.054 20.7106 46.9834 20.8815V21.1345C46.9834 21.5036 47.0608 21.7975 47.2158 22.0163C47.3707 22.2328 47.5712 22.341 47.8173 22.341C48.0634 22.341 48.2583 22.2487 48.4018 22.0641C48.5454 21.8796 48.6171 21.6369 48.6171 21.3361C48.6171 21.0353 48.5442 20.7904 48.3984 20.6013C48.2526 20.4121 48.0589 20.3176 47.8173 20.3176ZM53.3476 20.8474C53.3476 21.5628 53.2132 22.1029 52.9443 22.4675C52.6777 22.8298 52.271 23.0109 51.7241 23.0109C51.1863 23.0109 50.7807 22.8343 50.5073 22.4811C50.2361 22.1257 50.0971 21.6004 50.0903 20.9055V20.0441C50.0903 19.3286 50.2236 18.792 50.4902 18.4343C50.7591 18.0765 51.1681 17.8976 51.7172 17.8976C52.2618 17.8976 52.6674 18.072 52.934 18.4206C53.2029 18.7692 53.3408 19.291 53.3476 19.986V20.8474ZM52.517 19.9177C52.517 19.4505 52.4532 19.1087 52.3256 18.8923C52.198 18.6735 51.9952 18.5641 51.7172 18.5641C51.4461 18.5641 51.2467 18.6678 51.1191 18.8752C50.9915 19.0803 50.9243 19.4016 50.9174 19.8391V20.967C50.9174 21.4318 50.9824 21.7782 51.1123 22.006C51.2421 22.2339 51.4461 22.3478 51.7241 22.3478C51.9907 22.3478 52.1878 22.243 52.3154 22.0334C52.443 21.8215 52.5102 21.4911 52.517 21.0422V19.9177ZM55.0463 17.8976C55.2879 17.8976 55.4964 17.9877 55.6718 18.1677C55.8473 18.3477 55.935 18.563 55.935 18.8137C55.935 19.0643 55.8484 19.2785 55.6752 19.4562C55.5021 19.6317 55.2924 19.7194 55.0463 19.7194C54.798 19.7194 54.5849 19.6317 54.4072 19.4562C54.2317 19.2785 54.144 19.0643 54.144 18.8137C54.144 18.563 54.2329 18.3477 54.4106 18.1677C54.5906 17.9877 54.8025 17.8976 55.0463 17.8976ZM55.0463 19.2375C55.1671 19.2375 55.2662 19.1976 55.3437 19.1179C55.4235 19.0358 55.4633 18.9344 55.4633 18.8137C55.4633 18.6952 55.4235 18.5926 55.3437 18.506C55.2662 18.4195 55.1671 18.3762 55.0463 18.3762C54.9256 18.3762 54.8242 18.4195 54.7421 18.506C54.6601 18.5926 54.6191 18.6952 54.6191 18.8137C54.6191 18.9321 54.6601 19.0324 54.7421 19.1144C54.8265 19.1965 54.9279 19.2375 55.0463 19.2375Z" fill="#FF057C"/>
<defs>
<linearGradient id="paint0_linear" x1="51.5" y1="2.00003" x2="51.5" y2="79.0115" gradientUnits="userSpaceOnUse">
<stop offset="1" stop-color="#02DCFF"/>
</linearGradient>
</defs>
</svg>
