<svg width="111" height="111" viewBox="0 0 111 111" fill="none" xmlns="http://www.w3.org/2000/svg">
<path fill-rule="evenodd" clip-rule="evenodd" d="M15.1233 52.6678C11.218 56.573 11.218 62.9047 15.1233 66.8099L41.2579 92.9446C45.1632 96.8498 51.4948 96.8498 55.4001 92.9446L104.332 44.0123C108.238 40.1071 108.238 33.7754 104.332 29.8702L78.1977 3.73551C74.2924 -0.169731 67.9608 -0.169731 64.0556 3.73551L15.1233 52.6678ZM54.4832 64.0996C52.5221 65.5635 50.63 65.384 48.807 63.561L40.4377 55.1917C40.1615 54.9155 39.9129 54.6393 39.692 54.3631C38.3385 52.5124 38.6976 50.5513 40.7692 48.4797L44.1666 45.0823C44.5533 44.6956 44.9538 44.3503 45.3682 44.0465C47.2464 42.6654 49.097 42.8864 50.9201 44.7094L59.3722 52.9958C59.5379 53.1615 59.6898 53.3411 59.8279 53.5344C61.4576 55.4403 61.14 57.5257 58.875 59.7907L55.4776 63.1881C55.1461 63.5195 54.8147 63.8234 54.4832 64.0996ZM47.7712 46.781C47.5779 46.6429 47.3431 46.6567 47.0669 46.8224L42.5508 51.3385C42.385 51.5595 42.3712 51.7943 42.5093 52.0429L51.9144 61.4479C52.163 61.6965 52.4116 61.6965 52.6602 61.4479L57.1763 56.9318C57.4249 56.6832 57.4249 56.4347 57.1763 56.1861L47.7712 46.781ZM83.1127 59.1692C81.0688 60.8265 79.0938 60.7022 77.188 58.7963L68.8187 50.427C68.5701 50.1784 68.3491 49.9298 68.1558 49.6812C66.7471 47.8306 67.0924 45.8557 69.1916 43.7565L72.589 40.359C72.9481 39.9999 73.321 39.6823 73.7077 39.4061C75.6412 37.9698 77.5056 38.1493 79.301 39.9447L87.6703 48.314C87.8912 48.5349 88.0846 48.7559 88.2503 48.9769C89.7695 50.8828 89.4518 52.9129 87.2974 55.0674L83.9 58.4648C83.6514 58.7134 83.389 58.9482 83.1127 59.1692ZM76.1936 42.0577C75.945 41.8091 75.6964 41.8091 75.4478 42.0577L70.9317 46.5738C70.6831 46.8224 70.6831 47.071 70.9317 47.3196L80.2954 56.6832C80.5163 56.849 80.7649 56.849 81.0411 56.6832L85.5572 52.1672C85.723 51.9462 85.723 51.6976 85.5572 51.4214L76.1936 42.0577ZM71.7604 70.9359L69.1087 73.5875L56.5134 32.4041L59.1236 29.7939L71.7604 70.9359Z" fill="#5EEAD8"/>
<path fill-rule="evenodd" clip-rule="evenodd" d="M17.8989 54.7393C16.2575 53.1121 13.4699 53.8743 12.8847 56.1103L0.480596 103.504C-0.0970072 105.711 1.90234 107.729 4.11466 107.173L52.1412 95.092C54.4064 94.5222 55.1803 91.6965 53.5214 90.0521L17.8989 54.7393ZM24.0482 95.9054C27.3596 95.9054 30.044 93.221 30.044 89.9096C30.044 86.5982 27.3596 83.9138 24.0482 83.9138C20.7369 83.9138 18.0525 86.5982 18.0525 89.9096C18.0525 93.221 20.7369 95.9054 24.0482 95.9054Z" fill="#5EEAD8"/>
<path d="M1.11995 106.24L5.11979 102L9.35945 106.24L5.00257 109.87L1.11995 106.24Z" fill="#5EEAD8"/>
<path fill-rule="evenodd" clip-rule="evenodd" d="M21.375 57.9738C19.7335 56.3466 16.946 57.1087 16.3607 59.3447L3.95667 106.738C3.37907 108.945 5.37842 110.964 7.59074 110.407L55.6173 98.3264C57.8825 97.7566 58.6563 94.9309 56.9975 93.2865L21.375 57.9738ZM24.0491 95.9053C27.3605 95.9053 30.0449 93.2209 30.0449 89.9095C30.0449 86.5982 27.3605 83.9137 24.0491 83.9137C20.7377 83.9137 18.0533 86.5982 18.0533 89.9095C18.0533 93.2209 20.7377 95.9053 24.0491 95.9053Z" fill="#16FFE2"/>
<path fill-rule="evenodd" clip-rule="evenodd" d="M18.8318 55.704C14.9265 59.6092 14.9265 65.9409 18.8318 69.8461L44.9664 95.9808C48.8717 99.886 55.2033 99.886 59.1085 95.9808L107.881 47.2083C111.786 43.303 111.786 36.9714 107.881 33.0661L81.7464 6.9315C77.8412 3.02626 71.5095 3.02625 67.6043 6.93149L18.8318 55.704ZM54.4832 64.0996C52.5221 65.5635 50.63 65.384 48.807 63.561L40.4377 55.1917C40.1615 54.9155 39.9129 54.6393 39.692 54.3631C38.3385 52.5124 38.6976 50.5513 40.7692 48.4797L44.1666 45.0823C44.5533 44.6956 44.9538 44.3503 45.3682 44.0465C47.2464 42.6654 49.097 42.8864 50.9201 44.7094L59.3722 52.9958C59.5379 53.1615 59.6898 53.3411 59.8279 53.5344C61.4576 55.4403 61.14 57.5257 58.875 59.7907L55.4776 63.1881C55.1461 63.5195 54.8147 63.8234 54.4832 64.0996ZM47.7712 46.781C47.5779 46.6429 47.3431 46.6567 47.0669 46.8224L42.5508 51.3385C42.385 51.5595 42.3712 51.7943 42.5093 52.0429L51.9144 61.4479C52.163 61.6965 52.4116 61.6965 52.6602 61.4479L57.1763 56.9319C57.4249 56.6833 57.4249 56.4347 57.1763 56.1861L47.7712 46.781ZM83.1127 59.1692C81.0688 60.8265 79.0938 60.7022 77.188 58.7963L68.8187 50.427C68.5701 50.1784 68.3491 49.9298 68.1558 49.6812C66.7471 47.8306 67.0924 45.8557 69.1916 43.7565L72.589 40.359C72.9481 40 73.321 39.6823 73.7077 39.4061C75.6412 37.9698 77.5056 38.1493 79.301 39.9447L87.6703 48.314C87.8912 48.535 88.0846 48.7559 88.2503 48.9769C89.7695 50.8828 89.4518 52.9129 87.2974 55.0674L83.9 58.4648C83.6514 58.7134 83.389 58.9482 83.1127 59.1692ZM76.1936 42.0577C75.945 41.8092 75.6964 41.8092 75.4478 42.0577L70.9317 46.5738C70.6831 46.8224 70.6831 47.071 70.9317 47.3196L80.2954 56.6833C80.5163 56.849 80.7649 56.849 81.0411 56.6833L85.5572 52.1672C85.723 51.9462 85.723 51.6976 85.5572 51.4214L76.1936 42.0577ZM71.7604 70.9359L69.1087 73.5875L56.5134 32.4041L59.1236 29.7939L71.7604 70.9359Z" fill="#16FFE2"/>
</svg>
